<?xml version="1.0" encoding="utf-8"?>
<!-- Generator: Adobe Illustrator 19.0.0, SVG Export Plug-In . SVG Version: 6.00 Build 0)  -->
<svg version="1.1" id="Layer_1" xmlns="http://www.w3.org/2000/svg" xmlns:xlink="http://www.w3.org/1999/xlink" x="0px" y="0px"
	 viewBox="0 0 1024 1024" style="enable-background:new 0 0 1024 1024;" xml:space="preserve">
<style type="text/css">
	.st0{fill:#ECE4D5;}
	.st1{fill:#EEE5D6;}
	.st2{fill:#F9612D;}
	.st3{fill:#EDE4D5;}
	.st4{fill:#EBE3D6;}
	.st5{fill:#EFE3D3;}
	.st6{fill:#EDE5D6;}
	.st7{fill:#E9E1D6;}
</style>
<path class="st0" d="M512.8,1024c-169.8,0-339.7,0-509.5,0.1c-1.9,0-2.3-0.4-2.3-2.3C1.1,681.9,1.1,342.1,1,2.2
	c0-1.9,0.4-2.3,2.3-2.3C343.1,0,683,0,1022.8-0.1c1.9,0,2.3,0.4,2.3,2.3c-0.1,339.8-0.1,679.7,0,1019.5c0,1.9-0.4,2.3-2.3,2.3
	C852.8,1024,682.8,1024,512.8,1024z"/>
<path d="M511.9,907.5c-40.2-0.1-77.1-10.6-112.2-31c-10.8-6.3-27.1-3.1-40.9-4.3c-40.4-3.6-79.3-12.5-112.8-36.7
	c-50.9-36.6-61.6-88.5-52.9-146.8c1.7-11.6,4.3-23,7.2-34.3c1.4-5.4,0-5.3-4.4-4.3c-66.4,16.1-131.3-22.6-148.5-88.6
	c-18-68.9,19.2-137.5,84.9-156c29.6-8.3,58.3-5.6,85.7,9c2,1.1,3.7,3,5-1.1c21.4-66.1,71.7-96.8,136-109.8c18.1-3.7,36.4-6,54.7-9
	c0.7-0.1,1.4-0.3,2.1-0.4c-0.7-0.5-1.3-1.2-2.1-1.4c-33.9-11.8-43.9-26.2-42.6-61.5c0-1.4,0.4-2.8,0.6-4.2c1,0.9,2.2,1.7,2.9,2.8
	c7.8,10.8,18.4,18.2,29.9,24.6c1,0.6,2.3,0.7,3.5,1.1c-0.8-1-1.5-1.9-2.4-2.8c-29.5-32.6-19.3-81.1,11.5-112.3
	c0.4-0.4,0.9-0.6,1.3-0.9c-0.1,1-0.1,2-0.5,2.9c-10.5,28.2-4.1,53.5,13.2,77c0.5,0.7,1.2,1.3,1.9,1.9c-0.1-0.9-0.1-1.9-0.3-2.8
	c-11.1-58.4,20.3-98.4,80.1-102.1c1.2-0.1,2.5,0.1,3.7,0.2c-0.6,1-1.2,2.1-2,3c-38.6,45.5-33.7,109.5,11.1,149.2
	c10.1,9,20.9,10.1,33.9,9.1c58.9-4.4,115.5,3.9,166.9,35.3c37.8,23.1,62.8,56.5,75.6,98.9c0.9,3.1,1.4,3.2,4.1,1.9
	c51.1-23.9,107.3-13.5,143,26.5c37.1,41.4,43.1,104,14.6,151.7c-29,48.7-81.5,71-135.8,57.7c-5.6-1.4-3.8,1.4-3.1,4.2
	c10,39.5,15.4,79.3,1.1,118.9c-18.7,52.1-60.7,76.5-110.9,90.2c-27.4,7.5-55.4,9.9-83.6,11.1c-2.6,0.1-5.6,0.7-7.7,2
	C589.4,898.4,551.9,907.6,511.9,907.5z"/>
<path class="st1" d="M381.1,779.6c0.3-20,3.3-39.6,11.3-58.2c0.5-1.3,0.7-2.7,1.1-4c-1.3,0.5-2.6,1-3.8,1.7
	c-39,22.3-95.8,19.8-126.5-6.3c-21.7-18.4-27.5-42.7-23.4-70c0.3-2,1.9-3.8,2.9-5.7c1.3,1.4,3,2.7,3.8,4.3
	c13,26.7,37.2,33.8,63.9,36.5c34.9,3.5,69.8,4.1,104.6-1.6c31.4-5.1,53.2-22.7,66.4-51.4c1.8-4,4.6-5.2,8.5-5.6
	c19.3-1.7,38.4-0.8,57.5,2.2c1.6,0.2,3.6,1.5,4.2,2.8c17.9,39.7,51.7,52.9,92,54.8c41.2,2,82.4,3.9,122.4-9.4
	c3.9-1.3,7.6-3.5,11.3-5.5c2.7-1.4,5.2-3.1,7.7-4.6c-0.3,3.3-0.5,6.6-1,9.8c-6.3,36.4-36.3,61.3-77.3,64
	c-26.1,1.8-51.1-1.6-73.9-15.7c-0.7-0.4-1.5-0.5-2.3-0.7c0.3,1,0.6,2,1,3c10.4,24.2,13.9,49.6,11.8,75.7
	c-2.8,34.1-23.7,55.5-53,68.5c-52.4,23.3-105.6,23.2-157.8-1C397.4,847.1,379,819.4,381.1,779.6z"/>
<path class="st1" d="M508.3,476.2c-42.1,2.8-80.3-12.4-120.3-13.8c-43.4-1.6-86.8-3.7-130.2-0.8c-4.4,0.3-5.9-0.2-6-5.1
	c-1.4-64.7,59.8-117.1,126-108.5c29.4,3.8,54.5,15.3,76.1,35.4c34.9,32.5,81.9,32,116.7-1.1c49.1-46.6,127.6-46.3,174,0.9
	c18.9,19.3,28.4,42.5,28.5,69.8c0,7.9-2.6,9.3-10.1,8.9c-67.5-3.8-134.8-3.7-201.5,9.2C543.3,474.5,525.2,477.4,508.3,476.2z"/>
<path class="st2" d="M329.9,463c40.2,0.9,88.7,3.9,137.1,13.5c37.4,7.5,75.1,0.4,112.8-5.7c67.3-10.9,135.4-11,203.3-4.4
	c18.4,1.8,23.5,8.7,23.2,27.2c-0.6,39.1-8.3,76.9-18.1,114.6c-8.4,32.1-29.6,45.8-60.9,49c-44.5,4.5-88.6,5.6-132.7-4.5
	c-31.7-7.2-43.2-31.5-54.7-57.2c-4.8-10.8-9.9-21.8-16.6-31.5c-10.2-14.9-25.1-14.8-34.6,0.6c-8.6,14-16.1,28.8-22.6,43.9
	c-12.4,28.9-34.5,43.5-64.8,48.6c-38.2,6.4-76.1,5.7-114.3,0.4c-32-4.5-48.6-24.1-57.2-53.7c-10-34.5-15.8-69.6-17.5-105.3
	c-1.2-24.6,5.5-30.9,30.3-33.3C268.8,462.8,295,462.7,329.9,463z"/>
<path class="st1" d="M72.3,524.6c0.1-70.9,70.2-118.5,129.5-89.1c16.4,8.2,14.5,19.7,12.8,32.7c-0.5,4.1-2.7,0.1-3.4-0.5
	c-30.5-23.5-65.7-24-91.2-1c-26,23.3-31.3,64.3-12.3,95.4c0.6,0.9,1.3,1.7,1.9,2.6c-0.2-1.3-0.3-2.7-0.8-4
	c-14-40.5,7.7-84.3,45.8-92.3c26.8-5.6,51.6,14,56.5,44.3c4.3,26.9-0.9,50.8-21.6,69.6c-14.3,13-31.6,17-50.6,13.6
	c-1-0.2-2-0.3-3-0.4c0.9,0.6,1.7,1.4,2.7,1.8c24.8,10.7,48.5,7.7,71.4-5.6c1.2-0.7,2.5-1.4,3.8-2c0,1.4,0.2,2.7,0,4.1
	c-3.5,24.9-21.3,36.2-51.9,32.8C109.1,620.5,72.3,578.6,72.3,524.6z"/>
<path class="st3" d="M927.4,517.4c-1-26.4-13-49.2-40.4-61.6c-26.1-11.8-50.6-7.1-72.9,10.6c-1.3,1-2.6,1.8-4,2.8
	c-0.2-1.5-0.8-3.2-0.6-4.6c1.3-7.2-5.2-16.2,1.1-21.4c15.9-13.1,35.1-18.4,55.5-15.9c51.7,6.2,86.6,48.2,84.9,101.2
	c-1.6,52.2-40.6,94.5-90.8,98c-15,1-29.4-2.5-42.9-9.5c-2.9-1.5-8.2-23.4-5.9-25.4c0.5-0.5,2.8,0.5,4,1.2
	c22.4,12.9,45.6,14.5,69.5,4.6c1.1-0.4,1.9-1.3,2.9-2c-1.1,0.2-2.1,0.3-3.2,0.5c-14.8,2.8-28.5,0-41.8-6.9
	c-23.3-12.2-24-31.3-19.3-54c2.7-13.2,7.1-27.9-3.7-40.6c-0.5-0.6,0.8-2.9,1.6-4.2c18.5-31.1,61.4-30.2,84,1.6
	c14.9,21.1,17.6,44,9.6,68.4c-0.4,1.1-0.4,2.4-0.7,3.6c0.7-1,1.6-2,2.2-3.1C923.7,548.2,927.2,534.8,927.4,517.4z"/>
<path class="st4" d="M513.1,593.5c-5.1,0-10.2,0-15.2,0c3.2-5.2,5.8-11,9.7-15.5c7.9-9.1,17.2-7,23.3,3.7
	c5.8,10.2,7.3,16.1-7.9,12.4c-3.1-0.7-6.6-0.1-9.9-0.1C513.1,593.9,513.1,593.7,513.1,593.5z"/>
<path class="st5" d="M509.8,610.4c-4.9,0-9.9,0.2-14.8-0.1c-1.7-0.1-5.2,2.1-5-1.2c0.2-2.3,1-6.5,5.4-6.4
	c14.1,0.4,28.1,0.8,42.2,1.2c4.8,0.2,6.7,4.5,6.4,7.5c-0.3,2.9-4,0.4-6.3,0.2c-9.3-0.7-18.6-1.4-27.9-2.1
	C509.8,609.9,509.8,610.1,509.8,610.4z"/>
<path d="M508.4,789.7c0-13.6,0.1-27.1-0.1-40.7c0-3.7,0.3-5.5,4.8-5.6c4.9-0.1,5.1,2,5.1,5.8c-0.1,27.3,0.1,54.6,0,81.9
	c0,4.1,1.1,4.8,5,4.4c30.8-3.8,59.2-14.6,85.4-30.9c5-3.1,6.5,0,8.5,2.8c2.7,3.7-1.6,3.8-3.1,4.7c-66.3,41.8-133.1,43.5-200.2,2
	c-2.4-1.5-8.1-1.7-5.5-7.2c2.9-6.2,6.4-3.1,10.3-0.7c25.8,16,53.7,26.2,84.1,29.5c4.6,0.5,5.9-0.6,5.8-5.3
	C508.2,816.8,508.4,803.3,508.4,789.7z"/>
<path d="M526.8,699.7c-0.2-11,12.5-23.8,22.3-23.4c3.4,0.1,6.1,1.4,7.3,4.6c1.1,3-0.3,5.3-2.4,7.3c-7,6.4-18,6.6-23.3,16.3
	C529.5,706.8,527.5,701.4,526.8,699.7z"/>
<path d="M497.7,699.5c-0.8,1.4-1.4,4.3-3,5.1c-2.9,1.4-3.3-2.1-4.1-3.8c-3.2-6.2-9.9-6.3-15-9c-4.7-2.5-10.7-5.3-7.3-11.7
	c3.1-5.9,9-4.3,14-1.6C490.1,682.9,496,689,497.7,699.5z"/>
<path d="M682,479.5c20.7,1.1,41.3,1.9,62,3.4c26.4,1.9,36.5,12.9,35.8,39.2c-0.7,25.5-4.6,50.6-11.1,75.3
	c-6.4,24.4-20.6,39.6-46.8,42.5c-34.4,3.8-68.6,4.9-103,0.3c-26.1-3.5-44.6-16.1-54.2-41.2c-5.3-13.8-11.6-27.3-16.6-41.3
	c-14.1-39.1-4.2-57.5,35.9-68.3C616,480.7,649,480.1,682,479.5z"/>
<path d="M351.3,644c-16.3-0.9-32.6-1.4-48.8-2.9c-29.8-2.6-43.7-14.9-52.8-45.3c-6.5-21.9-9.4-44.4-10.9-67.1
	c-2-32,5.5-43.1,37.4-45.9c53.5-4.7,107.3-5.9,159.9,8.7c30.5,8.5,40.4,26.1,31.1,56.4c-6.9,22.4-16.5,43.9-27.5,64.7
	c-13.5,25.6-39.1,26.3-63.2,29.4c-8.3,1.1-16.8,0.9-25.2,1.4C351.3,643.6,351.3,643.8,351.3,644z"/>
<path d="M507.3,526.1c-10.4-1.4-22.1-3.5-22.2-17.5c-0.1-13.1,10-17.9,21.7-18.1c12-0.2,22.3,4.4,22.6,17.8
	C529.7,521.3,519.6,525.3,507.3,526.1z"/>
<path class="st6" d="M706.8,500.3c10.5,0.8,29.8,2.2,49.2,3.5c4.7,0.3,5.6,1.9,4,6.4c-11.1,32.9-23.6,65.5-23,101
	c0.1,4.3,0.4,9.4,2.7,12.6c5.8,8,0.5,9.4-5.4,10.5c-44.6,8.2-89.1,10-133.5-1.3c-7.1-1.8-12.2-5.8-15.5-12.7
	c-9.8-20.7-19.1-41.5-24.7-63.7c-6.1-24,1.8-38.2,25.6-45.1C622.7,501,660.3,500.3,706.8,500.3z"/>
<path class="st3" d="M345.5,500.1c32.3,1.2,70.4,0.7,107.3,13.1c14.8,5,18,13.9,13.9,27.5c-7.6,25.3-18,49.4-30.6,72.5
	c-11,19.9-31.2,22.8-50.9,25.1c-32.1,3.7-64.3,4.1-96.2-2.5c-5.4-1.1-10.2-0.6-5.2-9.8c9.5-17.4,3.6-36.3-0.7-54.1
	c-4.7-19.7-11-39-17.4-58.2c-2.3-6.7,0.2-7.8,5.4-8.8C293.7,500.3,316.7,500.3,345.5,500.1z"/>
<path class="st7" d="M519.5,510.1c1.8,1.3,7.2-1.8,6.4,2.1c-1.9,8.4-9.3,11-17.3,11.1c-3.1,0.1-9.1-0.4-8.4-2.3
	C503.3,513,510.4,509.7,519.5,510.1z"/>
<path d="M597.2,546c8.6-2.8,11.1,0.1,13.1,7.6c6.6,25.7,34.2,33.8,54.9,17.1c5.9-4.7,13-1.8,19.6-1.7c2.2,0-0.4,2.6-1.1,3.5
	c-12.6,17.1-35.1,25.1-55.5,20c-18.5-4.7-37-24.6-39.1-43.9C588.3,541.4,595.7,547.7,597.2,546z"/>
<path d="M352,568.1c1.7-0.4,5.6,1.6,9.9,4.6c20.9,14.9,48.5,3.1,54-22.1c2.6-11.7,12.7-4.4,19-4.8c4.1-0.2,0.6,5.7-0.3,8.3
	c-13.8,40.9-60.7,53.1-89.8,23.2c-2.3-2.4-4.1-5.4-6.1-8.2C342,568.9,345.2,568.7,352,568.1z"/>
</svg>
