<?xml version="1.0" encoding="utf-8"?>
<!-- Generator: Adobe Illustrator 19.0.0, SVG Export Plug-In . SVG Version: 6.00 Build 0)  -->
<svg version="1.1" id="Layer_1" xmlns="http://www.w3.org/2000/svg" xmlns:xlink="http://www.w3.org/1999/xlink" x="0px" y="0px"
	 viewBox="0 0 1024 1024" style="enable-background:new 0 0 1024 1024;" xml:space="preserve">
<style type="text/css">
	.st0{stroke:#FFFFFF;stroke-width:8;stroke-miterlimit:10;}
	.st1{fill:#FFFFFF;}
	.st2{fill:#FFFFFF;stroke:#FFFFFF;stroke-miterlimit:10;}
	.st3{fill:#F9612D;}
	.st4{fill:#E9E1D5;}
</style>
<path id="XMLID_104_" class="st0" d="M845,658.7c5,19,9,37.5,10.6,56.5c3.8,44.3-3.6,85.5-33.9,120.1c-18.9,21.6-43,35.4-69.7,45.1
	c-29.6,10.8-60.4,15.9-91.8,17.9c-7.6,0.5-15.3,0.9-22.9,1.1c-2.8,0.1-4.9,1.3-7,2.7c-42.6,27.4-89.5,35.6-139.2,31.9
	c-35.8-2.7-68.9-13.3-98.8-33.3c-2.2-1.5-4.5-1.2-6.8-1.3c-29.6-1.1-59-3.1-87.9-10.5c-34.6-8.9-66.5-23.1-91.5-49.6
	c-21.9-23.2-33.4-51-36.8-82.5c-3.5-32.5,2-63.9,10.1-95.2c0.2-0.7,0.3-1.5,0.6-2.9c-9.3,1.7-18,4.2-27.1,4.7
	c-57.1,3.3-99.5-20.9-126.4-70.5c-35.2-64.7-11.5-148.5,51.3-183c39.7-21.8,80.5-22.8,121.2-1.3c0.8,0.5,1.8,0.8,2.8,1.2
	c6.5-19.6,14.9-37.9,27.5-54.3c22.5-29.2,52.6-46.9,87-58c29.7-9.6,60.4-14.3,91.3-18c0.5-0.1,1-0.2,2.8-0.7
	c-19.1-4.7-34.5-12.9-43.5-29.8c-7-13.2-6.2-27.4-5.1-42c10,14.1,23.1,24,39.6,31.9c-36.9-38.3-23.4-92.7,11.3-126.3
	c-6.5,16.1-8.8,31.4-5.7,47.2c3.1,15.7,10.2,29.4,20.5,42.3c-14.7-75.6,28.6-109.2,89.5-112.8c-2,0.1-7,8.6-8.2,10.3
	c-2.7,3.7-5.1,7.6-7.4,11.6c-4.5,7.9-8,16.3-10.6,25.1c-11.1,37.9-0.3,79,27.3,107c10.9,11,20.3,20.5,36.4,19.1
	c17.9-1.5,36-2,54-1.1c35.7,1.7,71.5,8.8,104.2,23.5c28.3,12.8,54,31.7,74,55.5c10,11.9,18.5,25,25,39.1c3.2,7,6,14.3,8.1,21.8
	c1.4,4.9,0.7,6.4,5.5,5.7c4.3-0.6,9.5-4.4,13.7-5.9c48.5-17.8,106.3-3.4,140.6,35.4c40.2,45.4,43.5,111.5,15.1,160.9
	C968.6,643.3,913,676.5,845,658.7z"/>
<path id="XMLID_95_" class="st1" d="M224.9,644.9c2.8,4.3,5.7,8.1,7.9,12.1c7.5,13.4,19.1,21.3,33.4,26c14.6,4.8,29.7,6.9,45,7.7
	c31.9,1.6,63.9,2.8,95.5-3.1c19.4-3.6,38-9.7,52.3-24.4c8.8-9.1,14.6-20.3,20.7-31.2c1.9-3.3,4.2-4.9,7.7-5.3
	c21.2-2.1,42.2-0.9,63.2,2.2c2,0.3,3.1,1.5,4.1,3c3,4.6,6.4,9,8.8,13.8c11.6,22.8,31.2,34.1,55.2,39.5c29.7,6.7,59.8,7.3,90,6.5
	c20-0.6,39.9-1.7,59.5-6.3c12.9-3,25.1-7.5,35.5-16.4c0.9,28.6-16.6,56.7-44.5,69c-41,18.1-81,14.4-120.5-7
	c2.7,6.9,5.5,13.7,7.6,20.8c6.9,23.5,8.9,47.3,5.3,71.4c-3.9,25.9-19.9,43.7-41,57.4c-19,12.4-40.1,19.2-62.3,22.7
	c-37.9,5.9-74.9,3.3-110.8-11c-15.2-6.1-28.9-14.7-40.8-26.1c-14.7-14.1-22-31.6-23.7-51.6c-2.4-28.2,1.1-55.4,12.6-81.5
	c0.2-0.5,0.2-1.1,0.4-2.6c-12.2,7.8-24.9,12.5-38.2,15.3c-29.7,6.1-58.9,5.1-86.4-9.1c-34.1-17.6-44.1-50-41-81.6
	C220.7,651.7,221.6,648.2,224.9,644.9z"/>
<path id="XMLID_94_" class="st2" d="M506.4,473.5c-25.3,2.9-49.4-3.6-73.8-8.2c-27.2-5.1-54.8-6.9-82.4-7.9
	c-33.9-1.2-67.8-2-101.7-0.2c-1.6,0.1-3.1,0.1-4.7,0.2c-9.6,0.7-9.6,0.7-9.7-8.7c-0.5-41.8,19.7-72.1,53.9-93.4
	c49.1-30.5,117.2-26.6,163.3,20.4c28,28.5,87.1,34.2,120.7,0.1c20.3-20.5,44.6-33.3,73.1-38c50.3-8.3,107.8,12.4,134.2,61.4
	c8.8,16.4,12.5,34,11.8,52.6c-0.2,5.1-1.7,7-7.2,6.5c-41.3-3.5-82.6-2.6-123.9-1c-37.2,1.4-74.2,5.2-110.5,14.1
	C535.3,474.8,520.8,473.3,506.4,473.5z"/>
<path id="XMLID_93_" class="st3" d="M294.8,459.4c33.7-0.3,67.4,1.2,101,3.9c18.7,1.5,37.4,4.1,55.6,8.6c24.9,6.1,50.2,4.6,75.4,4.8
	c19.3,0.1,37.4-6.3,56.1-9.2c21.3-3.3,42.7-5.3,64.2-6.6c38-2.2,76-2.3,114-1.2c15.4,0.5,31,0.7,46.1,4.3
	c14.8,3.5,19.7,9.5,19.6,24.6c-0.3,45-8.5,88.6-21.3,131.6c-7.9,26.5-25.3,40.7-52.1,45c-45,7.2-90,7.6-135.1,1
	c-10.5-1.5-20.6-4.7-30.5-8.4c-15.7-5.9-26.6-16.8-33.6-31.9c-7.1-15-14.3-30.1-21.4-45.1c-3.2-6.8-7-13.1-12.4-18.4
	c-8.8-8.5-19.3-8.7-28.2-0.4c-4.1,3.8-7.1,8.4-9.5,13.3c-7.1,14.2-14.8,28.1-21,42.7c-12.6,29.3-35.7,43-65.8,48.5
	c-37.2,6.8-74.3,6.7-111.7,2.4c-10.2-1.2-20-3.4-29.8-6.4c-18-5.5-29.7-17.4-36.6-34.6c-12.1-30.4-19-62-22.4-94.5
	c-1.6-15.4-3.8-30.7-3.6-46.2c0.2-12.3,3.8-17.8,15.5-21.8c9.3-3.2,19.1-4.1,28.9-4.8C255.6,459.5,275.2,459.1,294.8,459.4z"/>
<path id="XMLID_92_" class="st1" d="M194.3,594.1c-1.4,8.7-2.7,16.3-3.8,24.1c-0.5,3.4-2.6,4.9-5.4,6.2c-32.4,15.4-63.8,13-93.8-6
	c-65.1-41.1-65.7-140.8-1.1-182.7c31.7-20.6,73.4-19.5,102.5,2.5c2.6,2,3.7,3.8,3.3,7.3c-0.9,7-1.1,14-1.7,22.1
	c-16.2-13.9-33.7-22.8-55-22.3c-21.2,0.5-38.6,9-52.7,24.5c-22.9,25.2-25,68-4.5,98.1c-1.8-6.9-4-13.7-5.1-20.8
	c-4.5-27.8,9.1-58.5,32.8-73.7c29.4-18.9,63.6-8.6,76.2,24.2c10.6,27.9,9,55.5-9.9,80c-16.7,21.7-39.3,28.3-65.3,23.5
	C125.8,611.3,159.5,616.6,194.3,594.1z"/>
<path id="XMLID_91_" class="st1" d="M832.4,595.6c26.7,16.6,53.9,19,82,5.5c-14.6,3.3-28.7,2.1-42.4-4.1
	c-12.7-5.7-22.4-14.9-29.2-27c-1.1-1.9-1.4-3.7-1-6.1c3-17.4,5.8-34.7,6.1-52.4c0.1-6.4-0.7-12.6-5.6-17.3c-2.3-2.2-0.3-3.5,0.5-5
	c12.8-22.5,38.2-30.8,62.3-20.8c30.3,12.6,45.4,45.8,42.4,74.9c-0.8,8.2-2.6,16.1-5.4,23.8c18.9-25.9,20.4-70.4-5-98.2
	c-23.3-25.4-68.3-35.9-106.7-1.9c0.4-8.8-0.5-16.9-1.1-24.9c-0.3-3.2,2.5-4.2,4.5-5.6c32.5-22.3,77-20.7,108.3,4.8
	c30.2,24.7,42.7,57.3,39.1,95.8c-3.6,38.9-23,68.2-57.5,86.5c-26.6,14.1-54.2,14.7-81.9,1.9c-4.1-1.9-6.5-4.1-7-8.9
	C833.7,609.8,832.2,603.2,832.4,595.6z"/>
<path id="XMLID_90_" class="st1" d="M539.4,601.1c-14.8-2.1-28.6-1.7-42.8-1.6c3.2-5.8,5.8-11.1,9.6-15.8c4.6-5.6,10.7-7.4,17.6-7.6
	c2.6-0.1,3.8,1.5,4.8,3.5C532,586.4,535.4,593.1,539.4,601.1z"/>
<path id="XMLID_89_" class="st1" d="M547,619.9c-19.7-3.9-39-3.5-58.3-2.6c1.6-7.9,2.1-8.4,9.5-8.5c12.7-0.2,25.4-0.2,38.1,0.9
	C542.7,610.3,545.7,613.1,547,619.9z"/>
<path id="XMLID_84_" d="M519,809c0,14,0.2,29.3-0.1,44c-0.1,4.8,1.5,5.3,5.7,4.7c32.8-4.1,62.7-15.8,90.8-32.8
	c4.2-2.5,8.1-1.1,9.9,3.4c0.9,2.4-1.1,2.6-2.2,3.3c-24.1,15.4-49.8,26.8-77.9,32.3c-51.6,10.1-97.8-4-141.1-31.3
	c-1.6-1-5.7-1.7-2.8-5.4c2.2-2.9,3.7-5.9,8.7-2.6c27.9,18.2,58.4,29.6,91.7,33.2c6.9,0.7,6.9,0.9,6.8-5.9c0-29,0.1-58-0.2-87
	c0-4.5,1.3-5.5,5.6-5.6c4.3-0.1,5.1,1.6,5.1,5.5c-0.2,14.7-0.1,28.2-0.1,44.2C518.9,809,518.9,809,519,809z"/>
<path id="XMLID_83_" d="M528.1,711.2c0.1-9.8,12.2-22.8,22-23.6c4.2-0.3,8,0.5,9.7,4.8c1.6,4-1,6.6-3.7,9c-3.3,2.9-7.4,4.2-11.4,5.6
	c-3.9,1.4-6.7,3.8-9.1,7c-1.2,1.6-1.4,4.8-4.2,4C528.2,717.1,528,714,528.1,711.2z"/>
<path id="XMLID_82_" d="M496.6,711.7c0,2.7-0.4,5.6-3.2,6.4c-2.8,0.8-3.2-2.4-4.1-4.1c-2.2-4.1-5.7-6.2-10-7.5
	c-4.3-1.3-8.4-2.9-11.9-5.9c-2.6-2.3-3.8-5.1-2.6-8.3c1.2-3.3,4.1-4.4,7.5-4.6c4.3-0.1,8,1.8,11.3,4.2
	C490.4,696.8,496,702.7,496.6,711.7z"/>
<path id="XMLID_81_" d="M694.2,478.1c21.9,0.2,43.9-0.3,65.7,2.5c6.2,0.8,12.3,2,18.3,4.1c13.1,4.6,20,14.5,20.2,27.6
	c0.6,34.1-4.3,67.5-14.8,100c-7.9,24.2-25.7,34-49.5,36.7c-33.6,3.8-67.2,4.6-100.8,1c-9.3-1-18.6-2.9-27.5-6.1
	c-12.3-4.5-22.7-11.7-29.1-23.5c-13.5-24.9-25.5-50.6-31.1-78.3c-4.9-24.3,3.1-38.6,24.8-47.6c18.6-7.7,38.1-11.6,58-13.8
	C650.3,478,672.2,478.1,694.2,478.1z"/>
<path id="XMLID_80_" d="M316.2,478c28.6,0,57.2,0.6,85.5,5c14.7,2.3,29.2,5.8,42.8,11.9c19.4,8.8,28,27.1,21.8,48.8
	c-7.5,26.6-19,51.8-31.6,76.4c-7,13.6-18.7,21.2-33.1,25.2c-16.2,4.4-32.7,6.1-49.3,6.7c-24.1,0.9-48.1,0.5-72.1-3.2
	c-24.1-3.6-38.8-17.6-46.2-40.4c-7.1-21.9-10.8-44.4-12.9-67.2c-0.7-7.8-1.4-15.6-1.3-23.4c0.3-19.9,9.9-31.8,29.6-35.8
	c17.7-3.6,35.8-3.9,53.8-3.9C307.6,478,311.9,478,316.2,478z"/>
<path id="XMLID_79_" d="M508.5,526.6c-7.6,0.4-14-1.8-19.5-6.2c-7.3-5.9-8-16.5-1.6-23.4c8.3-9,22.7-11.3,33.3-5.2
	c6.8,3.9,11.1,9.6,10.3,17.6c-0.8,8.2-6,13.3-13.7,15.9C514.3,526.4,511.3,526.9,508.5,526.6z"/>
<path id="XMLID_78_" class="st1" d="M759.8,638.9c-9.2,4.8-19.1,6.3-28.9,7.5c-30.4,3.6-61,4.3-91.5,1.3
	c-12.5-1.2-24.8-3.4-36.6-7.9c-3.9-1.5-7.5-3.5-9.5-7.4c-12.9-25.3-24.6-51.1-30.4-79c-3.9-18.9,3.9-32.6,22-39.5
	c19-7.3,39-9.8,59.1-11.8c33.6-3.3,67.3-3.3,101-1.2c9.8,0.6,19.5,1.7,29.3,2.5c3.6,0.3,4.9,1.4,3.4,5.5
	c-8.6,24.7-17.1,49.5-22,75.3c-1.9,10-3.1,20.1-3.2,30.3C752.5,623.3,753.9,631.6,759.8,638.9z"/>
<path id="XMLID_77_" class="st1" d="M263.3,640.5c10.4-10,9.9-22,9-34c-2.1-29.8-11.9-57.7-21-85.8c-0.8-2.6-1.8-5.2-2.7-7.7
	c-2.3-6.5-2.1-7,4.7-8.5c14.8-3.3,29.8-4.3,44.9-4.8c38-1.1,76-0.7,113.7,4.6c16.3,2.3,32.2,5.9,47,13.7c4.9,2.6,6.5,6,6.4,11.2
	c-0.1,10.6-3.2,20.4-6.9,30.1c-6.6,16.9-14.2,33.4-21.4,50.1c-8.5,19.9-23.2,31.3-44.3,35c-39.7,6.9-79.4,7.3-119.1-0.2
	c-2.3-0.4-4.5-1.4-6.7-2.1C265.9,641.7,264.8,641.2,263.3,640.5z"/>
<path id="XMLID_76_" class="st4" d="M520.2,509.8c2.2,0.4,6.2-1.2,7,1.3c1.1,3.2-1.9,6.1-4.5,8.2c-6,4.9-12.9,5.7-20.4,4.1
	c-3.3-0.7-3.8-1.7-1.8-4.5C504.9,512.8,510.9,509.9,520.2,509.8z"/>
<path id="XMLID_75_" d="M698.1,572.4c-15.8,27.3-58.5,38.8-85.6,11.6c-9-9.1-15-19.9-18-32.3c-0.7-3-0.4-4.6,3.1-4.2
	c0.4,0,0.8,0,1.2,0c4.9-0.1,10.2-1.4,14.6,0.2c5.1,1.8,3.1,8.4,4.9,12.7c9.3,23.2,35.5,31.1,55.4,16c4.1-3.1,8-4.3,12.8-4
	C690,572.6,693.8,572.4,698.1,572.4z"/>
<path id="XMLID_74_" d="M327.2,572.4c5.6,0,11.4,0.1,17.2,0c2.3,0,3.5,1.6,4.9,2.8c22.6,18,54.7,6.3,59.9-22.1
	c0.9-4.8,2.6-6.2,7.1-5.8c3.9,0.3,7.8,0.2,11.7,0c3.3-0.2,4.2,1.1,3.4,4.1c-6.7,23.1-19.8,40.9-44.1,46.3
	c-23.7,5.3-43.9-2.7-59-22.2C327.8,574.8,326.7,574.2,327.2,572.4z"/>
<g id="XMLID_1_">
</g>
<g id="XMLID_2_">
</g>
<g id="XMLID_3_">
</g>
<g id="XMLID_4_">
</g>
<g id="XMLID_5_">
</g>
</svg>
